<svg xmlns="http://www.w3.org/2000/svg" viewBox="0 0 1050.6 582.19" width="1018.59" height="550.19" style="background-color: rgb(248, 249, 250);"><defs><style>@import url('https://fonts.googleapis.com/css2?family=Caveat+Brush&amp;family=Source+Code+Pro&amp;family=Source+Sans+Pro&amp;family=Crimson+Pro&amp;display=block');</style></defs><g id="310d9ab4-56f9-4e48-09b8-980a006ed1cc_svg" class="tl-centered-g" transform="translate(16.00, 235.60) rotate(0.00, 121.30, 98.90)"><path d="M 0.27,106.02 Q 0.27,106.02 0.21,99.91 0.15,93.80 -0.02,86.12 -0.20,78.45 -0.38,70.38 -0.57,62.31 -0.75,54.14 -0.94,45.97 -1.12,37.78 -1.31,29.58 -1.47,21.28 -1.63,12.99 1.48,7.40 4.60,1.81 11.94,0.27 19.27,-1.26 27.19,-1.46 35.10,-1.66 43.13,-1.61 51.16,-1.56 59.23,-1.45 67.30,-1.34 75.38,-1.22 83.46,-1.09 91.54,-0.97 99.62,-0.84 107.71,-0.71 115.79,-0.58 123.87,-0.62 131.96,-0.65 140.04,-0.69 148.13,-0.72 156.21,-0.75 164.29,-0.79 172.38,-0.82 180.46,-0.86 188.55,-0.89 196.63,-0.92 204.72,-0.96 212.80,-0.99 220.97,-1.00 229.14,-1.01 234.69,2.14 240.24,5.30 241.71,12.70 243.19,20.09 243.33,28.06 243.47,36.04 243.36,44.13 243.25,52.22 243.08,60.35 242.91,68.48 242.73,76.62 242.55,84.77 242.47,92.91 242.38,101.06 242.40,109.21 242.42,117.35 242.44,125.50 242.46,133.65 242.48,141.80 242.50,149.95 242.52,158.09 242.54,166.24 242.53,174.48 242.53,182.71 239.38,188.26 236.22,193.81 228.97,195.38 221.72,196.95 213.92,197.19 206.13,197.44 198.22,197.43 190.32,197.43 182.38,197.37 174.44,197.31 166.49,197.23 158.54,197.15 150.59,197.07 142.64,196.99 134.68,196.91 126.73,196.83 118.78,196.91 110.83,196.99 102.87,197.07 94.92,197.15 86.97,197.23 79.01,197.31 71.06,197.39 63.11,197.47 55.15,197.55 47.20,197.64 39.25,197.72 31.30,197.80 23.25,197.85 15.21,197.91 9.70,194.78 4.19,191.65 2.59,184.22 1.00,176.78 0.70,168.76 0.41,160.73 0.35,152.58 0.29,144.43 0.30,136.24 0.30,128.05 0.32,119.84 0.33,111.64 0.25,103.43 0.17,95.23 -0.01,87.02 -0.20,78.82 -0.41,67.80 -0.62,56.79 -0.57,56.43 -0.51,56.06 -0.34,55.74 -0.17,55.41 0.08,55.16 0.34,54.90 0.67,54.75 1.01,54.59 1.37,54.55 1.73,54.50 2.09,54.58 2.45,54.65 2.77,54.84 3.08,55.02 3.33,55.30 3.57,55.58 3.70,55.92 3.84,56.26 3.87,56.62 3.89,56.99 3.80,57.34 3.70,57.70 3.50,58.00 3.30,58.31 3.01,58.53 2.72,58.76 2.37,58.88 2.02,59.00 1.66,59.00 1.29,59.01 0.94,58.89 0.59,58.78 0.30,58.56 0.00,58.34 -0.19,58.04 -0.40,57.74 -0.51,57.39 -0.61,57.03 -0.59,56.67 -0.57,56.30 -0.44,55.96 -0.31,55.62 -0.07,55.34 0.15,55.05 0.46,54.86 0.77,54.67 1.13,54.59 1.49,54.50 1.85,54.54 2.22,54.58 2.55,54.73 2.89,54.88 3.16,55.13 3.43,55.38 3.60,55.70 3.78,56.02 3.84,56.38 3.90,56.74 3.90,56.74 3.90,56.74 3.91,67.76 3.91,78.78 3.89,86.98 3.87,95.19 3.96,103.40 4.04,111.60 4.23,119.80 4.42,127.99 4.62,136.17 4.83,144.34 5.09,152.42 5.35,160.49 5.81,168.16 6.27,175.82 7.16,181.94 8.05,188.06 11.81,190.14 15.57,192.23 23.43,192.29 31.30,192.35 39.25,192.43 47.20,192.51 55.16,192.59 63.11,192.67 71.06,192.76 79.01,192.84 86.97,192.92 94.92,193.00 102.87,193.08 110.83,193.16 118.78,193.25 126.73,193.33 134.68,193.25 142.64,193.17 150.59,193.08 158.54,193.00 166.48,192.92 174.43,192.83 182.35,192.73 190.27,192.63 198.10,192.47 205.92,192.32 213.34,191.95 220.76,191.59 226.70,190.77 232.64,189.95 234.74,186.13 236.85,182.31 237.01,174.25 237.18,166.19 237.36,158.04 237.55,149.90 237.74,141.75 237.93,133.60 238.11,125.46 238.30,117.31 238.49,109.17 238.68,101.02 238.76,92.87 238.84,84.73 238.82,76.59 238.79,68.45 238.75,60.33 238.72,52.22 238.62,44.20 238.52,36.18 238.21,28.57 237.90,20.97 237.12,14.89 236.34,8.81 232.55,6.74 228.76,4.66 220.76,4.55 212.77,4.45 204.68,4.32 196.60,4.19 188.52,4.06 180.43,3.93 172.35,3.81 164.27,3.68 156.19,3.55 148.10,3.42 140.02,3.29 131.94,3.16 123.85,3.04 115.77,2.91 107.69,2.94 99.60,2.98 91.52,3.01 83.44,3.05 75.36,3.09 67.29,3.12 59.23,3.18 51.18,3.23 43.23,3.34 35.28,3.46 27.74,3.78 20.20,4.10 14.17,4.89 8.14,5.68 6.09,9.49 4.04,13.30 4.04,21.41 4.04,29.53 4.02,37.72 4.00,45.92 3.98,54.10 3.96,62.27 3.93,70.34 3.91,78.41 3.88,86.09 3.86,93.76 3.92,99.87 3.98,105.99 3.95,106.21 3.93,106.43 3.85,106.64 3.78,106.85 3.65,107.04 3.53,107.22 3.36,107.37 3.19,107.52 3.00,107.63 2.80,107.73 2.58,107.79 2.37,107.84 2.14,107.85 1.92,107.85 1.70,107.80 1.49,107.75 1.29,107.64 1.09,107.54 0.92,107.39 0.75,107.25 0.62,107.07 0.49,106.88 0.41,106.68 0.33,106.47 0.30,106.25 Z" fill="#1c7ed6" stroke="#1c7ed6" stroke-width="3.5" pointer-events="none"/></g><g id="1cdc031c-d5ef-455a-3941-6e10af84d026_svg" class="tl-centered-g" transform="translate(472.00, 11.60) rotate(313.33, 112.93, 121.40)"><path d="M 100.39,2.30 Q 100.39,2.30 102.93,1.51 105.47,0.71 108.72,0.21 111.98,-0.29 116.56,-0.57 121.15,-0.84 123.92,-0.75 126.70,-0.66 129.79,-0.32 132.87,0.00 136.22,0.65 139.57,1.30 143.15,2.32 146.74,3.34 150.50,4.79 154.26,6.24 158.14,8.14 162.02,10.04 165.98,12.39 169.94,14.75 173.94,17.53 177.95,20.32 181.94,23.59 185.93,26.85 189.82,30.63 193.71,34.42 197.42,38.73 201.14,43.05 204.58,47.91 208.02,52.77 211.10,58.17 214.17,63.57 216.79,69.47 219.41,75.37 221.47,81.73 223.54,88.09 224.96,94.84 226.38,101.59 227.08,108.66 227.77,115.72 227.68,122.99 227.58,130.26 226.64,137.62 225.70,144.98 223.87,152.30 222.04,159.63 219.31,166.77 216.59,173.92 212.97,180.74 209.35,187.56 204.86,193.91 200.38,200.27 195.09,206.01 189.80,211.75 183.78,216.75 177.76,221.75 171.12,225.89 164.47,230.03 157.32,233.21 150.16,236.38 142.64,238.51 135.12,240.65 127.37,241.69 119.63,242.73 111.82,242.65 104.01,242.57 96.30,241.37 88.59,240.18 81.12,237.90 73.66,235.62 66.59,232.32 59.52,229.01 52.98,224.77 46.44,220.53 40.54,215.46 34.64,210.38 29.48,204.59 24.32,198.81 19.97,192.45 15.62,186.08 12.13,179.28 8.64,172.49 6.03,165.40 3.42,158.31 1.70,151.07 -0.02,143.84 -0.89,136.59 -1.75,129.33 -1.80,122.20 -1.84,115.06 -1.12,108.14 -0.40,101.22 1.00,94.62 2.41,88.02 4.43,81.82 6.46,75.62 9.00,69.87 11.55,64.13 14.53,58.88 17.51,53.64 20.83,48.93 24.14,44.21 27.71,40.03 31.28,35.85 35.01,32.21 38.74,28.57 42.55,25.45 46.37,22.33 50.20,19.71 54.02,17.09 57.78,14.90 61.54,12.72 65.18,10.95 68.81,9.17 72.29,7.77 75.77,6.37 79.05,5.31 82.33,4.25 85.37,3.49 88.42,2.73 91.20,2.23 93.99,1.73 96.48,1.44 98.98,1.15 103.04,1.01 107.10,0.88 111.31,1.24 115.52,1.59 115.52,1.60 115.52,1.60 115.52,1.61 115.52,1.61 111.37,2.09 107.22,2.57 103.30,3.17 99.38,3.77 96.98,4.23 94.59,4.69 91.92,5.29 89.25,5.90 86.32,6.70 83.39,7.50 80.22,8.54 77.05,9.58 73.67,10.92 70.30,12.25 66.76,13.94 63.22,15.63 59.57,17.73 55.92,19.84 52.22,22.40 48.53,24.96 44.83,28.00 41.14,31.03 37.51,34.56 33.89,38.09 30.42,42.14 26.95,46.19 23.72,50.77 20.50,55.34 17.59,60.43 14.69,65.53 12.21,71.11 9.72,76.69 7.75,82.72 5.77,88.75 4.39,95.16 3.01,101.58 2.30,108.31 1.59,115.04 1.62,121.99 1.65,128.93 2.48,135.99 3.32,143.04 4.98,150.09 6.65,157.13 9.18,164.02 11.70,170.92 15.09,177.53 18.47,184.15 22.68,190.34 26.89,196.53 31.89,202.15 36.89,207.78 42.60,212.72 48.31,217.65 54.65,221.78 60.98,225.90 67.83,229.12 74.67,232.33 81.89,234.56 89.12,236.78 96.59,237.95 104.06,239.13 111.62,239.22 119.18,239.32 126.68,238.33 134.19,237.34 141.48,235.28 148.77,233.23 155.72,230.17 162.66,227.10 169.11,223.10 175.57,219.10 181.42,214.26 187.27,209.41 192.42,203.84 197.57,198.27 201.93,192.10 206.30,185.94 209.83,179.31 213.36,172.68 216.02,165.73 218.68,158.78 220.46,151.66 222.25,144.54 223.17,137.37 224.09,130.21 224.18,123.14 224.28,116.06 223.59,109.19 222.91,102.32 221.52,95.76 220.13,89.20 218.11,83.02 216.09,76.85 213.52,71.13 210.95,65.42 207.93,60.21 204.91,55.00 201.53,50.33 198.15,45.66 194.50,41.55 190.84,37.44 187.01,33.89 183.17,30.34 179.24,27.34 175.30,24.35 171.34,21.89 167.38,19.44 163.46,17.50 159.55,15.56 155.77,14.04 151.99,12.52 148.40,11.31 144.81,10.11 141.45,9.15 138.08,8.20 134.95,7.44 131.83,6.69 128.95,6.10 126.08,5.51 123.47,5.06 120.86,4.61 116.46,4.03 112.07,3.45 108.87,3.19 105.67,2.93 103.03,2.63 Z" fill="#1c7ed6" stroke="#1c7ed6" stroke-width="3.5" pointer-events="none" stroke-linecap="round" stroke-linejoin="round"/></g><g id="266045b8-2753-4b54-1d76-47c703c8870e_svg" class="tl-centered-g" transform="translate(258.60, 183.10) rotate(0.00, 107.52, 48.40)"><defs><mask id="266045b8-2753-4b54-1d76-47c703c8870e_clip"><rect x="-100" y="-100" width="415.03" height="296.8" fill="white"/><rect x="107.51" y="48.4" width="0" height="0" rx="4" ry="4" fill="black" opacity="1"/></mask></defs><g pointer-events="none" opacity="1" mask=""><path d="M -0.73,95.15 Q -0.73,95.15 25.76,83.28 52.26,71.41 78.75,59.52 105.25,47.63 131.74,35.74 158.23,23.84 184.72,11.94 211.21,0.04 211.45,-0.01 211.68,-0.08 211.93,-0.06 212.18,-0.04 212.40,0.04 212.63,0.13 212.82,0.29 213.01,0.46 213.13,0.67 213.26,0.88 213.31,1.12 213.36,1.36 213.33,1.61 213.30,1.85 213.19,2.08 213.09,2.30 212.92,2.48 212.74,2.66 212.52,2.77 212.31,2.88 212.06,2.92 211.82,2.96 211.57,2.91 211.33,2.87 211.11,2.75 210.90,2.64 210.73,2.46 210.56,2.27 210.46,2.05 210.36,1.82 210.34,1.58 210.31,1.33 210.37,1.09 210.42,0.85 210.55,0.64 210.68,0.43 210.87,0.27 211.06,0.12 211.29,0.03 211.52,-0.05 211.77,-0.06 212.01,-0.07 212.25,-0.00 212.49,0.05 212.69,0.20 212.89,0.34 213.04,0.53 213.19,0.73 213.26,0.97 213.34,1.20 213.34,1.45 213.34,1.69 213.25,1.93 213.17,2.16 213.02,2.36 212.87,2.55 212.66,2.69 212.46,2.82 212.46,2.82 212.46,2.82 185.99,14.76 159.52,26.70 133.05,38.65 106.58,50.59 80.12,62.55 53.65,74.50 27.19,86.47 0.73,98.44 0.53,98.50 0.32,98.57 0.10,98.58 -0.10,98.59 -0.32,98.55 -0.53,98.51 -0.73,98.43 -0.93,98.34 -1.10,98.20 -1.27,98.07 -1.40,97.90 -1.54,97.73 -1.63,97.53 -1.71,97.33 -1.75,97.12 -1.79,96.90 -1.78,96.69 -1.77,96.47 -1.70,96.26 -1.64,96.06 -1.53,95.87 -1.41,95.68 -1.26,95.53 -1.11,95.38 -0.92,95.26 Z" fill="#1c7ed6" stroke="#1c7ed6" stroke-width="3.33" stroke-dasharray="none" stroke-dashoffset="none" stroke-linecap="round" stroke-linejoin="round" pointer-events="stroke"/><g><path d="M 187.17,-2.812154290928161 L 215.03,0 198.66,22.720025755398524" fill="none" stroke="#1c7ed6" stroke-width="6.66" stroke-linecap="round" stroke-linejoin="round" pointer-events="none"/></g></g></g><g id="9748160c-ea8d-4cfb-249f-0cc64256974e_svg" class="tl-centered-g" transform="translate(688.06, 196.31) rotate(0.00, 100.84, 61.91)"><defs><mask id="9748160c-ea8d-4cfb-249f-0cc64256974e_clip"><rect x="-100" y="-100" width="401.68" height="323.81" fill="white"/><rect x="100.84" y="61.90" width="0" height="0" rx="4" ry="4" fill="black" opacity="1"/></mask></defs><g pointer-events="none" opacity="1" mask=""><path d="M 0.78,-1.27 Q 0.78,-1.27 25.58,14.03 50.38,29.34 75.18,44.63 99.99,59.93 124.81,75.21 149.63,90.49 174.45,105.76 199.27,121.03 199.40,121.15 199.54,121.27 199.63,121.42 199.72,121.58 199.76,121.75 199.79,121.92 199.77,122.10 199.75,122.28 199.68,122.44 199.60,122.60 199.48,122.73 199.35,122.86 199.19,122.94 199.03,123.02 198.86,123.05 198.68,123.08 198.51,123.05 198.33,123.02 198.17,122.93 198.02,122.85 197.90,122.71 197.77,122.58 197.70,122.42 197.63,122.26 197.61,122.08 197.59,121.90 197.63,121.73 197.67,121.56 197.77,121.40 197.86,121.25 198.00,121.14 198.13,121.02 198.30,120.96 198.47,120.90 198.64,120.89 198.82,120.88 198.99,120.93 199.16,120.98 199.31,121.08 199.46,121.18 199.56,121.32 199.67,121.47 199.73,121.64 199.78,121.81 199.78,121.98 199.78,122.16 199.72,122.33 199.66,122.50 199.55,122.64 199.44,122.78 199.29,122.88 199.15,122.98 198.97,123.02 198.80,123.07 198.62,123.06 198.45,123.05 198.28,122.98 198.12,122.91 198.12,122.91 198.12,122.91 173.26,107.69 148.41,92.47 123.55,77.26 98.69,62.04 73.83,46.84 48.96,31.64 24.09,16.46 -0.78,1.27 -0.92,1.16 -1.06,1.05 -1.17,0.90 -1.28,0.76 -1.35,0.60 -1.43,0.43 -1.46,0.25 -1.49,0.08 -1.48,-0.09 -1.46,-0.27 -1.41,-0.45 -1.36,-0.62 -1.26,-0.77 -1.17,-0.93 -1.04,-1.05 -0.91,-1.18 -0.75,-1.27 -0.60,-1.36 -0.43,-1.42 -0.25,-1.47 -0.07,-1.48 0.10,-1.49 0.27,-1.45 0.45,-1.42 0.61,-1.35 Z" fill="#1c7ed6" stroke="#1c7ed6" stroke-width="3.33" stroke-dasharray="none" stroke-dashoffset="none" stroke-linecap="round" stroke-linejoin="round" pointer-events="stroke"/><g><path d="M 188.33,99.19252225461553 L 201.68,123.81 173.69,123.05482517013131" fill="none" stroke="#1c7ed6" stroke-width="6.66" stroke-linecap="round" stroke-linejoin="round" pointer-events="none"/></g></g></g><g id="14807c4d-ee63-4a47-0e09-493ce3b887a6_svg" class="tl-centered-g" transform="translate(856.00, 267.60) rotate(0.00, 89.30, 64.90)"><path d="M -1.13,129.45 Q -1.13,129.45 -0.06,127.91 1.01,126.37 2.35,124.43 3.69,122.49 5.10,120.45 6.51,118.41 7.93,116.35 9.36,114.28 10.79,112.21 12.22,110.14 13.65,108.07 15.08,105.99 16.52,103.92 17.95,101.84 19.38,99.77 20.81,97.70 22.24,95.62 23.68,93.55 25.11,91.47 26.54,89.40 27.97,87.32 29.40,85.25 30.84,83.18 32.27,81.10 33.70,79.03 35.13,76.95 36.56,74.88 38.00,72.80 39.43,70.73 40.86,68.66 42.26,66.56 43.66,64.47 45.03,62.35 46.41,60.24 47.78,58.12 49.15,56.01 50.52,53.89 51.89,51.78 53.26,49.66 54.63,47.55 56.00,45.43 57.37,43.32 58.74,41.20 60.12,39.09 61.49,36.97 62.86,34.86 64.23,32.74 65.60,30.63 66.97,28.51 68.34,26.40 69.71,24.28 71.08,22.17 72.45,20.05 73.83,17.94 75.20,15.82 76.57,13.70 77.94,11.59 79.31,9.47 80.68,7.36 82.05,5.24 83.42,3.13 84.79,1.01 85.15,0.48 85.51,-0.04 85.74,-0.31 85.96,-0.57 86.25,-0.77 86.53,-0.98 86.85,-1.10 87.18,-1.23 87.52,-1.28 87.87,-1.33 88.21,-1.29 88.56,-1.25 88.89,-1.13 89.21,-1.01 89.50,-0.82 89.79,-0.63 90.03,-0.37 90.26,-0.11 90.43,0.18 90.59,0.49 90.68,0.83 90.77,1.16 90.77,1.51 90.78,1.86 90.70,2.20 90.62,2.54 90.47,2.85 90.31,3.16 92.80,4.83 95.29,6.50 96.72,8.55 98.16,10.61 99.60,12.68 101.04,14.76 102.48,16.84 103.92,18.92 105.37,21.00 106.81,23.08 108.25,25.16 109.70,27.24 111.14,29.32 112.58,31.40 114.03,33.49 115.47,35.57 116.91,37.65 118.35,39.73 119.80,41.81 121.24,43.89 122.68,45.98 124.13,48.06 125.57,50.14 127.01,52.22 128.45,54.30 129.90,56.38 131.34,58.47 132.78,60.55 134.26,62.61 135.73,64.67 137.23,66.71 138.74,68.75 140.24,70.79 141.74,72.82 143.24,74.86 144.75,76.90 146.25,78.94 147.75,80.98 149.25,83.02 150.76,85.06 152.26,87.10 153.76,89.14 155.26,91.18 156.77,93.21 158.27,95.25 159.77,97.29 161.28,99.33 162.78,101.37 164.28,103.41 165.78,105.45 167.29,107.49 168.79,109.53 170.29,111.57 171.79,113.60 173.30,115.64 174.80,117.68 176.30,119.72 177.81,121.76 179.31,123.80 180.81,125.84 181.19,126.36 181.56,126.89 181.73,127.19 181.90,127.50 181.98,127.84 182.07,128.17 182.08,128.52 182.08,128.87 182.01,129.21 181.93,129.55 181.77,129.86 181.62,130.17 181.39,130.43 181.16,130.70 180.88,130.90 180.60,131.10 180.27,131.23 179.95,131.36 179.60,131.41 179.26,131.46 178.91,131.42 178.57,131.38 178.24,131.27 177.91,131.15 177.62,130.95 177.33,130.76 177.10,130.50 176.86,130.25 173.36,131.00 169.86,131.76 167.03,131.77 164.19,131.77 161.33,131.77 158.47,131.77 155.59,131.77 152.72,131.77 149.85,131.77 146.97,131.76 144.10,131.76 141.22,131.76 138.35,131.76 135.48,131.75 132.60,131.75 129.73,131.75 126.85,131.75 123.98,131.74 121.10,131.74 118.23,131.74 115.35,131.74 112.48,131.73 109.60,131.73 106.73,131.73 103.85,131.73 100.98,131.73 98.10,131.72 95.23,131.72 92.35,131.75 89.48,131.79 86.61,131.86 83.73,131.93 80.86,132.00 77.98,132.07 75.11,132.14 72.24,132.22 69.36,132.29 66.49,132.36 63.61,132.43 60.74,132.50 57.87,132.57 54.99,132.64 52.12,132.71 49.24,132.78 46.37,132.85 43.50,132.93 40.62,133.00 37.75,133.07 34.87,133.14 32.00,133.21 29.13,133.28 26.25,133.35 23.38,133.42 20.50,133.49 17.63,133.56 14.76,133.64 11.88,133.71 9.01,133.78 6.14,133.85 3.26,133.92 2.53,133.93 1.80,133.94 1.45,133.90 1.10,133.86 0.78,133.74 0.45,133.62 0.16,133.43 -0.12,133.23 -0.35,132.98 -0.59,132.72 -0.75,132.41 -0.92,132.11 -1.00,131.77 -1.09,131.43 -1.10,131.08 -1.10,130.74 -1.02,130.40 -0.94,130.06 -0.78,129.75 -0.62,129.44 -0.40,129.17 -0.17,128.91 0.10,128.71 0.39,128.51 0.71,128.38 1.04,128.25 1.38,128.21 1.73,128.16 2.71,125.35 3.70,122.53 5.10,120.48 6.51,118.42 7.94,116.35 9.36,114.29 10.79,112.21 12.22,110.14 13.65,108.07 15.08,105.99 16.52,103.92 17.95,101.84 19.38,99.77 20.81,97.70 22.24,95.62 23.68,93.55 25.11,91.47 26.54,89.40 27.97,87.32 29.40,85.25 30.84,83.18 32.27,81.10 33.70,79.03 35.13,76.95 36.56,74.88 38.00,72.80 39.43,70.73 40.86,68.66 42.26,66.56 43.66,64.47 45.03,62.35 46.41,60.24 47.78,58.12 49.15,56.01 50.52,53.89 51.89,51.78 53.26,49.66 54.63,47.55 56.00,45.43 57.37,43.32 58.74,41.20 60.12,39.09 61.49,36.97 62.86,34.86 64.23,32.74 65.60,30.63 66.97,28.51 68.34,26.40 69.71,24.28 71.08,22.17 72.45,20.05 73.83,17.94 75.20,15.82 76.57,13.70 77.94,11.59 79.31,9.47 80.68,7.36 82.05,5.24 83.90,2.41 85.75,-0.41 86.07,-0.75 86.39,-1.09 86.80,-1.31 87.21,-1.53 87.68,-1.61 88.14,-1.69 88.60,-1.62 89.06,-1.55 89.47,-1.33 89.89,-1.11 90.21,-0.78 90.53,-0.44 90.73,-0.02 90.93,0.40 90.98,0.86 91.04,1.33 90.94,1.78 90.84,2.24 90.60,2.64 90.37,3.04 90.01,3.35 89.66,3.65 89.22,3.83 88.79,4.00 88.32,4.03 87.86,4.06 87.41,3.94 86.96,3.81 86.57,3.55 86.18,3.29 85.90,2.92 85.61,2.55 85.46,2.11 85.31,1.67 85.30,1.20 85.30,0.74 85.45,0.29 85.59,-0.14 85.87,-0.51 86.16,-0.89 86.54,-1.15 86.93,-1.42 87.37,-1.54 87.82,-1.67 88.29,-1.65 88.76,-1.63 89.19,-1.46 89.63,-1.29 89.99,-0.99 90.34,-0.69 90.59,-0.29 90.83,0.10 90.93,0.56 91.04,1.01 90.99,1.48 90.94,1.94 90.75,2.37 90.55,2.79 90.55,2.79 90.55,2.79 88.64,5.58 86.73,8.37 85.30,10.45 83.87,12.52 82.43,14.60 81.00,16.67 79.57,18.75 78.14,20.82 76.71,22.89 75.27,24.97 73.84,27.04 72.41,29.12 70.98,31.19 69.55,33.27 68.11,35.34 66.68,37.41 65.25,39.49 63.82,41.56 62.39,43.64 60.95,45.71 59.52,47.79 58.09,49.86 56.66,51.93 55.23,54.01 53.79,56.08 52.36,58.16 50.93,60.23 49.50,62.31 48.07,64.38 46.63,66.45 45.23,68.55 43.83,70.64 42.46,72.76 41.09,74.87 39.72,76.99 38.35,79.10 36.97,81.22 35.60,83.33 34.23,85.45 32.86,87.56 31.49,89.68 30.12,91.79 28.75,93.91 27.38,96.02 26.01,98.14 24.64,100.25 23.26,102.37 21.89,104.48 20.52,106.60 19.15,108.71 17.78,110.83 16.41,112.94 15.04,115.05 13.68,117.17 12.32,119.27 10.96,121.37 9.63,123.44 8.30,125.50 7.12,127.40 5.94,129.29 3.87,131.61 1.80,133.94 1.45,133.90 1.10,133.86 0.78,133.74 0.45,133.62 0.16,133.43 -0.12,133.23 -0.35,132.98 -0.59,132.72 -0.75,132.41 -0.92,132.11 -1.00,131.77 -1.09,131.43 -1.10,131.08 -1.10,130.74 -1.02,130.40 -0.94,130.06 -0.78,129.75 -0.63,129.44 -0.40,129.17 -0.17,128.91 0.10,128.71 0.39,128.51 0.71,128.38 1.04,128.25 1.38,128.21 1.73,128.16 2.46,128.15 3.19,128.14 6.07,128.15 8.94,128.15 11.82,128.15 14.69,128.15 17.57,128.16 20.44,128.16 23.32,128.16 26.19,128.16 29.07,128.17 31.94,128.17 34.82,128.17 37.69,128.17 40.56,128.18 43.44,128.18 46.31,128.18 49.19,128.18 52.06,128.19 54.94,128.19 57.81,128.19 60.69,128.19 63.56,128.19 66.44,128.20 69.31,128.20 72.19,128.20 75.06,128.20 77.94,128.21 80.81,128.21 83.69,128.21 86.56,128.21 89.44,128.22 92.31,128.18 95.19,128.15 98.06,128.08 100.93,128.01 103.81,127.93 106.68,127.86 109.55,127.79 112.43,127.72 115.30,127.65 118.18,127.58 121.05,127.51 123.92,127.44 126.80,127.37 129.67,127.30 132.55,127.22 135.42,127.15 138.29,127.08 141.17,127.01 144.04,126.94 146.92,126.87 149.79,126.80 152.66,126.73 155.53,126.66 158.40,126.58 161.26,126.51 164.11,126.44 166.92,126.36 169.73,126.28 172.32,126.18 174.90,126.08 178.23,126.49 181.56,126.89 181.73,127.19 181.90,127.50 181.98,127.84 182.07,128.17 182.08,128.52 182.08,128.87 182.01,129.21 181.93,129.55 181.77,129.86 181.62,130.17 181.39,130.43 181.16,130.70 180.88,130.90 180.60,131.10 180.27,131.23 179.95,131.36 179.61,131.41 179.26,131.46 178.91,131.42 178.57,131.38 178.24,131.27 177.91,131.15 177.62,130.95 177.33,130.76 177.10,130.50 176.86,130.25 176.49,129.72 176.11,129.20 174.67,127.12 173.23,125.03 171.78,122.95 170.34,120.87 168.90,118.79 167.45,116.71 166.01,114.63 164.57,112.54 163.13,110.46 161.68,108.38 160.24,106.30 158.80,104.22 157.35,102.14 155.91,100.05 154.47,97.97 153.02,95.89 151.58,93.81 150.14,91.73 148.70,89.64 147.25,87.56 145.81,85.48 144.37,83.40 142.92,81.32 141.48,79.24 140.04,77.15 138.59,75.07 137.15,72.99 135.71,70.91 134.27,68.83 132.82,66.75 131.35,64.69 129.88,62.63 128.37,60.59 126.87,58.55 125.37,56.51 123.87,54.47 122.36,52.43 120.86,50.39 119.36,48.35 117.86,46.31 116.35,44.27 114.85,42.24 113.35,40.20 111.84,38.16 110.34,36.12 108.84,34.08 107.34,32.04 105.83,30.00 104.33,27.96 102.83,25.92 101.33,23.89 99.82,21.85 98.32,19.81 96.82,17.78 95.33,15.75 93.83,13.73 92.36,11.75 90.88,9.76 89.51,7.97 88.14,6.17 86.82,3.06 85.51,-0.04 85.74,-0.31 85.96,-0.57 86.25,-0.77 86.53,-0.97 86.85,-1.10 87.18,-1.23 87.52,-1.28 87.87,-1.33 88.21,-1.29 88.56,-1.25 88.89,-1.13 89.21,-1.01 89.50,-0.82 89.79,-0.63 90.03,-0.37 90.26,-0.11 90.43,0.18 90.59,0.49 90.68,0.83 90.77,1.16 90.77,1.51 90.78,1.86 90.70,2.20 90.62,2.54 90.47,2.85 90.31,3.16 89.95,3.69 89.59,4.23 88.16,6.30 86.73,8.37 85.30,10.45 83.87,12.52 82.43,14.60 81.00,16.67 79.57,18.75 78.14,20.82 76.71,22.89 75.27,24.97 73.84,27.04 72.41,29.12 70.98,31.19 69.55,33.27 68.11,35.34 66.68,37.41 65.25,39.49 63.82,41.56 62.39,43.64 60.95,45.71 59.52,47.79 58.09,49.86 56.66,51.93 55.23,54.01 53.79,56.08 52.36,58.16 50.93,60.23 49.50,62.31 48.07,64.38 46.63,66.45 45.23,68.55 43.83,70.64 42.46,72.76 41.09,74.87 39.72,76.99 38.35,79.10 36.97,81.22 35.60,83.33 34.23,85.45 32.86,87.56 31.49,89.68 30.12,91.79 28.75,93.91 27.38,96.02 26.01,98.14 24.64,100.25 23.26,102.37 21.89,104.48 20.52,106.60 19.15,108.71 17.78,110.83 16.41,112.94 15.04,115.06 13.67,117.17 12.31,119.27 10.94,121.38 9.59,123.46 8.25,125.54 6.97,127.52 5.69,129.50 4.67,131.08 3.66,132.66 3.43,132.92 3.20,133.19 2.92,133.39 2.64,133.59 2.31,133.72 1.99,133.85 1.65,133.90 1.30,133.94 0.95,133.91 0.61,133.87 0.28,133.75 -0.04,133.63 -0.33,133.44 -0.61,133.24 -0.85,132.99 -1.08,132.73 -1.25,132.42 -1.42,132.12 -1.50,131.78 -1.59,131.44 -1.60,131.10 -1.60,130.75 -1.52,130.41 -1.45,130.07 -1.29,129.76 Z" fill="#1c7ed6" stroke="#1c7ed6" stroke-width="3.5" pointer-events="none"/></g><g id="ecf38b22-d71f-4d28-0d90-c65e8e417d82_svg" class="tl-centered-g" transform="translate(472.00, 451.60) rotate(0.00, 79.70, 57.30)"><path d="M 160.85,78.56 Q 160.85,78.56 161.06,83.84 161.27,89.11 161.46,95.85 161.65,102.58 158.51,107.77 155.37,112.96 147.39,114.35 139.40,115.74 130.74,115.89 122.07,116.04 113.22,115.97 104.37,115.89 95.46,115.77 86.55,115.64 77.63,115.79 68.71,115.93 59.79,116.07 50.86,116.22 41.94,116.36 33.01,116.50 24.00,116.62 15.00,116.74 9.26,113.65 3.53,110.56 1.89,104.03 0.26,97.51 -0.00,90.61 -0.28,83.71 -0.29,76.76 -0.30,69.82 -0.42,62.86 -0.53,55.89 -0.80,48.92 -1.06,41.96 -1.32,34.98 -1.57,28.01 -1.80,20.93 -2.03,13.85 1.08,8.57 4.20,3.29 12.20,1.80 20.20,0.31 28.89,0.07 37.59,-0.17 46.47,-0.20 55.34,-0.22 64.28,-0.19 73.21,-0.16 82.16,-0.41 91.10,-0.65 100.05,-0.89 109.00,-1.12 117.95,-1.36 126.90,-1.60 135.94,-1.82 144.97,-2.03 150.73,1.03 156.49,4.11 158.10,10.70 159.71,17.30 159.95,24.30 160.20,31.30 160.18,38.35 160.17,45.41 160.25,52.48 160.34,59.55 160.57,66.63 160.80,73.71 161.05,83.22 161.30,92.72 161.24,93.13 161.18,93.54 160.98,93.91 160.79,94.28 160.50,94.57 160.20,94.86 159.82,95.03 159.45,95.21 159.04,95.26 158.62,95.31 158.22,95.22 157.81,95.14 157.46,94.93 157.10,94.72 156.83,94.40 156.56,94.09 156.40,93.71 156.24,93.32 156.22,92.91 156.19,92.49 156.30,92.09 156.40,91.69 156.63,91.35 156.86,91.00 157.19,90.75 157.52,90.50 157.91,90.36 158.30,90.22 158.72,90.22 159.13,90.22 159.53,90.34 159.92,90.47 160.25,90.72 160.58,90.97 160.82,91.31 161.06,91.65 161.17,92.05 161.28,92.45 161.27,92.86 161.25,93.28 161.10,93.66 160.95,94.05 160.68,94.37 160.42,94.69 160.06,94.90 159.71,95.12 159.31,95.21 158.90,95.31 158.49,95.26 158.08,95.22 157.70,95.05 157.32,94.88 157.02,94.60 156.71,94.32 156.52,93.95 156.32,93.59 156.25,93.18 156.18,92.77 156.18,92.77 156.18,92.77 156.25,83.26 156.33,73.76 156.42,66.68 156.51,59.60 156.43,52.54 156.34,45.49 156.04,38.52 155.73,31.55 155.22,24.97 154.70,18.39 153.72,13.11 152.75,7.84 148.72,5.74 144.70,3.65 135.83,3.62 126.96,3.60 118.01,3.55 109.05,3.50 100.10,3.46 91.15,3.41 82.20,3.37 73.26,3.33 64.34,3.58 55.42,3.84 46.60,4.14 37.79,4.45 29.41,4.95 21.03,5.45 14.37,6.34 7.71,7.23 5.66,10.72 3.62,14.21 3.58,21.08 3.54,27.94 3.47,34.92 3.41,41.89 3.34,48.86 3.28,55.83 3.40,62.78 3.51,69.72 3.85,76.58 4.18,83.44 4.72,89.92 5.26,96.40 6.26,101.59 7.26,106.79 11.29,108.92 15.32,111.04 24.17,111.17 33.01,111.29 41.94,111.43 50.86,111.58 59.79,111.72 68.71,111.86 77.63,112.00 86.55,112.14 95.44,111.98 104.33,111.82 113.13,111.61 121.92,111.40 130.28,111.00 138.64,110.59 145.28,109.79 151.91,108.99 153.96,105.59 156.00,102.18 156.07,95.67 156.14,89.16 156.26,83.88 156.37,78.60 156.40,78.33 156.43,78.06 156.53,77.81 156.62,77.56 156.77,77.34 156.92,77.11 157.12,76.93 157.32,76.75 157.56,76.62 157.80,76.50 158.06,76.43 158.32,76.36 158.59,76.36 158.86,76.36 159.12,76.42 159.39,76.48 159.63,76.60 159.86,76.73 160.07,76.90 160.27,77.08 160.43,77.30 160.58,77.52 160.68,77.77 160.78,78.03 160.81,78.29 Z" fill="#1c7ed6" stroke="#1c7ed6" stroke-width="3.5" pointer-events="none"/></g><g id="24b2d8c5-0653-406a-2bce-455957c01068_svg" class="tl-centered-g" transform="translate(258.60, 385.55) rotate(0.00, 98.70, 41.53)"><defs><mask id="24b2d8c5-0653-406a-2bce-455957c01068_clip"><rect x="-100" y="-100" width="397.4" height="283.07" fill="white"/><rect x="98.7" y="41.53" width="0" height="0" rx="4" ry="4" fill="black" opacity="1"/></mask></defs><g pointer-events="none" opacity="1" mask=""><path d="M 0.58,-1.37 Q 0.58,-1.37 24.82,8.90 49.06,19.18 73.31,29.44 97.56,39.71 121.82,49.96 146.08,60.21 170.34,70.45 194.60,80.69 194.75,80.79 194.90,80.88 195.01,81.02 195.12,81.16 195.19,81.32 195.25,81.49 195.26,81.67 195.26,81.85 195.21,82.02 195.16,82.19 195.06,82.33 194.95,82.48 194.81,82.59 194.67,82.69 194.50,82.74 194.33,82.80 194.15,82.79 193.97,82.79 193.80,82.73 193.63,82.67 193.49,82.56 193.35,82.45 193.26,82.30 193.16,82.15 193.12,81.98 193.07,81.81 193.08,81.63 193.10,81.45 193.17,81.29 193.24,81.12 193.35,80.99 193.47,80.85 193.63,80.77 193.78,80.68 193.96,80.64 194.13,80.61 194.31,80.63 194.48,80.65 194.64,80.73 194.80,80.81 194.93,80.93 195.06,81.06 195.14,81.22 195.22,81.38 195.25,81.55 195.27,81.73 195.24,81.90 195.21,82.08 195.12,82.24 195.03,82.39 194.90,82.51 194.77,82.63 194.61,82.70 194.44,82.77 194.27,82.79 194.09,82.81 193.91,82.76 193.74,82.72 193.74,82.72 193.74,82.72 169.46,72.54 145.18,62.35 120.89,52.17 96.60,42.00 72.31,31.83 48.01,21.67 23.71,11.52 -0.58,1.37 -0.73,1.28 -0.89,1.19 -1.02,1.07 -1.15,0.95 -1.25,0.79 -1.34,0.64 -1.40,0.47 -1.46,0.30 -1.47,0.12 -1.49,-0.05 -1.46,-0.23 -1.43,-0.40 -1.36,-0.57 -1.29,-0.74 -1.19,-0.88 -1.08,-1.03 -0.94,-1.14 -0.80,-1.26 -0.64,-1.33 -0.47,-1.41 -0.30,-1.45 -0.12,-1.49 0.05,-1.48 0.23,-1.47 0.40,-1.42 Z" fill="#1c7ed6" stroke="#1c7ed6" stroke-width="3.33" stroke-dasharray="none" stroke-dashoffset="none" stroke-linecap="round" stroke-linejoin="round" pointer-events="stroke"/><g><path d="M 180.47,60.760556221826235 L 197.4,83.07 169.61,86.56848727243735" fill="none" stroke="#1c7ed6" stroke-width="6.66" stroke-linecap="round" stroke-linejoin="round" pointer-events="none"/></g></g></g><g id="dc424631-9029-423a-0012-e01ea3915f39_svg" class="tl-centered-g" transform="translate(558.18, 248.52) rotate(0.00, 8.27, 93.54)"><defs><mask id="dc424631-9029-423a-0012-e01ea3915f39_clip"><rect x="-100" y="-100" width="216.54" height="387.08" fill="white"/><rect x="8.27" y="93.54" width="0" height="0" rx="4" ry="4" fill="black" opacity="1"/></mask></defs><g pointer-events="none" opacity="1" mask=""><path d="M 18.19,0.14 Q 18.19,0.14 16.10,23.09 14.01,46.03 11.94,68.97 9.86,91.92 7.80,114.87 5.74,137.81 3.68,160.76 1.63,183.71 1.58,183.91 1.52,184.12 1.41,184.30 1.29,184.48 1.12,184.62 0.95,184.75 0.75,184.82 0.54,184.90 0.33,184.90 0.11,184.91 -0.08,184.84 -0.29,184.78 -0.46,184.65 -0.63,184.52 -0.76,184.35 -0.88,184.17 -0.95,183.97 -1.01,183.76 -1.00,183.54 -0.99,183.33 -0.92,183.13 -0.84,182.93 -0.70,182.76 -0.57,182.59 -0.39,182.48 -0.20,182.36 0.00,182.31 0.20,182.26 0.42,182.28 0.63,182.30 0.83,182.39 1.03,182.47 1.19,182.62 1.35,182.76 1.45,182.95 1.56,183.14 1.59,183.35 1.63,183.56 1.60,183.78 1.57,183.99 1.48,184.18 1.38,184.37 1.23,184.52 1.07,184.68 0.88,184.77 0.68,184.86 0.47,184.89 0.26,184.92 0.05,184.88 -0.15,184.83 -0.34,184.73 -0.53,184.62 -0.67,184.46 -0.81,184.30 -0.90,184.10 -0.98,183.90 -1.00,183.69 -1.01,183.47 -1.01,183.47 -1.01,183.47 0.98,160.52 2.99,137.57 4.98,114.62 6.98,91.66 8.96,68.71 10.94,45.76 12.91,22.80 14.88,-0.14 14.92,-0.34 14.96,-0.53 15.05,-0.71 15.14,-0.89 15.27,-1.05 15.39,-1.20 15.55,-1.32 15.72,-1.44 15.90,-1.52 16.09,-1.59 16.28,-1.62 16.48,-1.65 16.68,-1.64 16.88,-1.62 17.07,-1.55 17.26,-1.49 17.43,-1.38 17.60,-1.27 17.73,-1.13 17.87,-0.98 17.97,-0.81 18.07,-0.63 18.12,-0.44 18.18,-0.25 18.18,-0.05 Z" fill="#1c7ed6" stroke="#1c7ed6" stroke-width="3.33" stroke-dasharray="none" stroke-dashoffset="none" stroke-linecap="round" stroke-linejoin="round" pointer-events="stroke"/><g><path d="M 16.08,164.15845749692775 L 0,187.08 -11.810070813143358,161.69255768320608" fill="none" stroke="#1c7ed6" stroke-width="6.66" stroke-linecap="round" stroke-linejoin="round" pointer-events="none"/></g></g></g><g id="778da0e9-5f03-43bb-0c22-07b0ae30c1a2_svg" class="tl-centered-g" transform="translate(647.40, 386.33) rotate(0.00, 108.11, 42.48)"><defs><mask id="778da0e9-5f03-43bb-0c22-07b0ae30c1a2_clip"><rect x="-100" y="-100" width="416.22" height="284.96" fill="white"/><rect x="108.11" y="42.48" width="0" height="0" rx="4" ry="4" fill="black" opacity="1"/></mask></defs><g pointer-events="none" opacity="1" mask=""><path d="M 216.85,1.62 Q 216.85,1.62 190.21,12.02 163.57,22.43 136.94,32.85 110.30,43.28 83.67,53.71 57.04,64.14 30.41,74.58 3.78,85.02 3.55,85.07 3.32,85.12 3.09,85.09 2.86,85.06 2.65,84.96 2.44,84.86 2.27,84.70 2.10,84.54 1.99,84.34 1.88,84.13 1.85,83.90 1.81,83.67 1.85,83.44 1.89,83.21 2.00,83.00 2.11,82.80 2.28,82.64 2.45,82.48 2.66,82.38 2.87,82.28 3.11,82.26 3.34,82.24 3.57,82.29 3.79,82.34 3.99,82.46 4.19,82.58 4.34,82.76 4.49,82.94 4.58,83.15 4.66,83.37 4.67,83.60 4.69,83.84 4.62,84.06 4.56,84.29 4.43,84.48 4.29,84.67 4.11,84.81 3.92,84.95 3.70,85.03 3.48,85.10 3.25,85.10 3.01,85.10 2.79,85.02 2.57,84.95 2.39,84.80 2.20,84.66 2.07,84.47 1.94,84.27 1.88,84.05 1.82,83.82 1.83,83.59 1.85,83.36 1.93,83.14 2.02,82.93 2.17,82.75 2.32,82.57 2.53,82.45 2.73,82.33 2.73,82.33 2.73,82.33 29.34,71.85 55.95,61.37 82.56,50.88 109.17,40.39 135.77,29.90 162.38,19.40 188.98,8.89 215.58,-1.62 215.78,-1.67 215.98,-1.72 216.19,-1.72 216.40,-1.73 216.61,-1.68 216.81,-1.63 217.00,-1.53 217.19,-1.44 217.35,-1.30 217.50,-1.16 217.63,-0.99 217.75,-0.82 217.82,-0.63 217.90,-0.43 217.93,-0.22 217.96,-0.02 217.93,0.18 217.91,0.39 217.84,0.59 217.77,0.79 217.65,0.96 217.53,1.13 217.38,1.27 217.22,1.42 217.04,1.52 Z" fill="#1c7ed6" stroke="#1c7ed6" stroke-width="3.33" stroke-dasharray="none" stroke-dashoffset="none" stroke-linecap="round" stroke-linejoin="round" pointer-events="stroke"/><g><path d="M 27.68,89.12209960478282 L 0,84.96 17.44,63.061731731188885" fill="none" stroke="#1c7ed6" stroke-width="6.66" stroke-linecap="round" stroke-linejoin="round" pointer-events="none"/></g></g></g></svg>